{
  "accessors": [
    {
      "bufferView": 2,
      "componentType": 5126,
      "count": 4,
      "max": [
        1.0,
        1.0,
        0.0
      ],
      "min": [
        -1.0,
        -1.0,
        0.0
      ],
      "type": "VEC3"
    },
    {
      "bufferView": 2,
      "byteOffset": 48,
      "componentType": 5126,
      "count": 4,
      "max": [
        0.0,
        0.0,
        1.0
      ],
      "min": [
        0.0,
        0.0,
        1.0
      ],
      "type": "VEC3"
    },
    {
      "bufferView": 1,
      "componentType": 5126,
      "count": 4,
      "max": [
        5.499000072479248,
        5.499000072479248
      ],
      "min": [
        -4.499000072479248,
        -4.499000072479248
      ],
      "type": "VEC2"
    },
    {
      "bufferView": 0,
      "componentType": 5125,
      "count": 6,
      "type": "SCALAR"
    },
    {
      "bufferView": 2,
      "byteOffset": 96,
      "componentType": 5126,
      "count": 6760,
      "max": [
        13.686189651489258,
        9.023980140686035,
        18.019210815429688
      ],
      "min": [
        -28.01325035095215,
        -9.224820137023926,
        -150.892822265625
      ],
      "type": "VEC3"
    },
    {
      "bufferView": 2,
      "byteOffset": 81216,
      "componentType": 5126,
      "count": 6760,
      "max": [
        1.0,
        1.0,
        1.0
      ],
      "min": [
        -1.0,
        -1.0,
        -1.0
      ],
      "type": "VEC3"
    },
    {
      "bufferView": 0,
      "byteOffset": 24,
      "componentType": 5125,
      "count": 39984,
      "type": "SCALAR"
    },
    {
      "bufferView": 2,
      "byteOffset": 162336,
      "componentType": 5126,
      "count": 112,
      "max": [
        -15.3149995803833,
        5.25078010559082,
        -25.923349380493164
      ],
      "min": [
        -26.05364990234375,
        -5.450870037078857,
        -33.55207061767578
      ],
      "type": "VEC3"
    },
    {
      "bufferView": 2,
      "byteOffset": 163680,
      "componentType": 5126,
      "count": 112,
      "max": [
        0.9707861542701721,
        0.9709848761558533,
        -0.23914119601249695
      ],
      "min": [
        -0.9707861542701721,
        -0.9709848761558533,
        -0.955062747001648
      ],
      "type": "VEC3"
    },
    {
      "bufferView": 0,
      "byteOffset": 159960,
      "componentType": 5125,
      "count": 528,
      "type": "SCALAR"
    }
  ],
  "asset": {
    "extras": {
      "author": "overburn401 (https://sketchfab.com/overburn401)",
      "license": "CC-BY-4.0 (http://creativecommons.org/licenses/by/4.0/)",
      "source": "https://sketchfab.com/3d-models/victorian-lamp-post-2-c4c987c8e9c24969964749f1312ca3e1",
      "title": "Victorian Lamp Post #2"
    },
    "generator": "Sketchfab-12.65.0",
    "version": "2.0"
  },
  "bufferViews": [
    {
      "buffer": 0,
      "byteLength": 162072,
      "name": "floatBufferViews",
      "target": 34963
    },
    {
      "buffer": 0,
      "byteLength": 32,
      "byteOffset": 162072,
      "byteStride": 8,
      "name": "floatBufferViews",
      "target": 34962
    },
    {
      "buffer": 0,
      "byteLength": 165024,
      "byteOffset": 162104,
      "byteStride": 12,
      "name": "floatBufferViews",
      "target": 34962
    }
  ],
  "buffers": [
    {
      "byteLength": 327128,
      "uri": "scene.bin"
    }
  ],
  "extensionsRequired": [
    "KHR_materials_pbrSpecularGlossiness"
  ],
  "extensionsUsed": [
    "KHR_materials_pbrSpecularGlossiness"
  ],
  "images": [
    {
      "uri": "textures/dummy_terrain_material_diffuse.jpeg"
    }
  ],
  "materials": [
    {
      "doubleSided": true,
      "emissiveFactor": [
        1.0,
        1.0,
        1.0
      ],
      "extensions": {
        "KHR_materials_pbrSpecularGlossiness": {
          "diffuseFactor": [
            1.0,
            1.0,
            1.0,
            1.0
          ],
          "glossinessFactor": 0.4,
          "specularFactor": [
            1.0,
            1.0,
            1.0
          ]
        }
      },
      "name": "bulb_casing_material"
    },
    {
      "doubleSided": true,
      "extensions": {
        "KHR_materials_pbrSpecularGlossiness": {
          "diffuseFactor": [
            0.01002169493585825,
            0.01002169493585825,
            0.01002169493585825,
            1.0
          ],
          "glossinessFactor": 0.4,
          "specularFactor": [
            0.05,
            0.05,
            0.05
          ]
        }
      },
      "name": "body_material"
    },
    {
      "doubleSided": true,
      "extensions": {
        "KHR_materials_pbrSpecularGlossiness": {
          "diffuseFactor": [
            1.0,
            1.0,
            1.0,
            1.0
          ],
          "diffuseTexture": {
            "index": 0
          },
          "glossinessFactor": 0.0,
          "specularFactor": [
            0.0,
            0.0,
            0.0
          ]
        }
      },
      "name": "dummy_terrain_material"
    }
  ],
  "meshes": [
    {
      "name": "dummy_terrain_0",
      "primitives": [
        {
          "attributes": {
            "NORMAL": 1,
            "POSITION": 0,
            "TEXCOORD_0": 2
          },
          "indices": 3,
          "material": 2,
          "mode": 4
        }
      ]
    },
    {
      "name": "body_0",
      "primitives": [
        {
          "attributes": {
            "NORMAL": 5,
            "POSITION": 4
          },
          "indices": 6,
          "material": 1,
          "mode": 4
        }
      ]
    },
    {
      "name": "bulb_casing_0",
      "primitives": [
        {
          "attributes": {
            "NORMAL": 8,
            "POSITION": 7
          },
          "indices": 9,
          "material": 0,
          "mode": 4
        }
      ]
    }
  ],
  "nodes": [
    {
      "children": [
        1
      ],
      "matrix": [
        1.0,
        0.0,
        0.0,
        0.0,
        0.0,
        2.220446049250313e-16,
        -1.0,
        0.0,
        0.0,
        1.0,
        2.220446049250313e-16,
        0.0,
        0.0,
        0.0,
        0.0,
        1.0
      ],
      "name": "Sketchfab_model"
    },
    {
      "children": [
        2,
        4,
        6,
        8
      ],
      "name": "Root"
    },
    {
      "children": [
        3
      ],
      "matrix": [
        1.0,
        0.0,
        0.0,
        0.0,
        0.0,
        1.0,
        0.0,
        0.0,
        0.0,
        0.0,
        1.0,
        0.0,
        -0.49989000000000006,
        0.19701000000000005,
        3.2358,
        1.0
      ],
      "name": "light"
    },
    {
      "name": "light"
    },
    {
      "children": [
        5
      ],
      "matrix": [
        13.16529,
        0.0,
        0.0,
        0.0,
        0.0,
        13.16529,
        0.0,
        0.0,
        0.0,
        0.0,
        6.5826400000000005,
        0.0,
        0.011660000000000002,
        0.028090000000000004,
        -0.01412,
        1.0
      ],
      "name": "dummy_terrain"
    },
    {
      "mesh": 0,
      "name": "dummy_terrain_0"
    },
    {
      "children": [
        7
      ],
      "matrix": [
        0.026590000000000006,
        0.0,
        0.0,
        0.0,
        0.0,
        0.026590000000000006,
        0.0,
        0.0,
        0.0,
        0.0,
        0.026590000000000006,
        0.0,
        0.05268000000000001,
        0.17885,
        3.98967,
        1.0
      ],
      "name": "body"
    },
    {
      "mesh": 1,
      "name": "body_0"
    },
    {
      "children": [
        9
      ],
      "matrix": [
        0.026590000000000006,
        0.0,
        0.0,
        0.0,
        0.0,
        0.026590000000000006,
        0.0,
        0.0,
        0.0,
        0.0,
        0.026590000000000006,
        0.0,
        0.05268000000000001,
        0.17885,
        3.98967,
        1.0
      ],
      "name": "bulb_casing"
    },
    {
      "mesh": 2,
      "name": "bulb_casing_0"
    }
  ],
  "samplers": [
    {
      "magFilter": 9729,
      "minFilter": 9987,
      "wrapS": 10497,
      "wrapT": 10497
    }
  ],
  "scene": 0,
  "scenes": [
    {
      "name": "Sketchfab_Scene",
      "nodes": [
        0
      ]
    }
  ],
  "textures": [
    {
      "sampler": 0,
      "source": 0
    }
  ]
}
