{
  "accessors": [
    {
      "bufferView": 2,
      "componentType": 5126,
      "count": 18658,
      "max": [
        0.23528234660625458,
        0.08737792074680328,
        0.2703854739665985
      ],
      "min": [
        -0.26884540915489197,
        -0.045443564653396606,
        -0.270285427570343
      ],
      "type": "VEC3"
    },
    {
      "bufferView": 2,
      "byteOffset": 223896,
      "componentType": 5126,
      "count": 18658,
      "max": [
        0.999936580657959,
        0.9999974966049194,
        0.9993648529052734
      ],
      "min": [
        -0.9999515414237976,
        -0.9931731820106506,
        -0.9979711174964905
      ],
      "type": "VEC3"
    },
    {
      "bufferView": 1,
      "componentType": 5126,
      "count": 18658,
      "max": [
        0.9784749746322632,
        0.9819228649139404
      ],
      "min": [
        0.008230037987232208,
        0.006514787673950195
      ],
      "type": "VEC2"
    },
    {
      "bufferView": 0,
      "componentType": 5125,
      "count": 93417,
      "type": "SCALAR"
    }
  ],
  "asset": {
    "extras": {
      "author": "Alben Tan (https://sketchfab.com/albentan2012)",
      "license": "CC-BY-4.0 (http://creativecommons.org/licenses/by/4.0/)",
      "source": "https://sketchfab.com/3d-models/sleeping-cat-on-the-bed-1-3d-scan-ae07a741be6944e8ba5e2657069d3aaf",
      "title": "Sleeping Cat On The Bed 1 - 3D scan"
    },
    "generator": "Sketchfab-13.66.0",
    "version": "2.0"
  },
  "bufferViews": [
    {
      "buffer": 0,
      "byteLength": 373668,
      "name": "floatBufferViews",
      "target": 34963
    },
    {
      "buffer": 0,
      "byteLength": 149264,
      "byteOffset": 373668,
      "byteStride": 8,
      "name": "floatBufferViews",
      "target": 34962
    },
    {
      "buffer": 0,
      "byteLength": 447792,
      "byteOffset": 522932,
      "byteStride": 12,
      "name": "floatBufferViews",
      "target": 34962
    }
  ],
  "buffers": [
    {
      "byteLength": 970724,
      "uri": "scene.bin"
    }
  ],
  "images": [
    {
      "uri": "textures/Material_0.006_baseColor.jpeg"
    }
  ],
  "materials": [
    {
      "name": "Material_0.006",
      "pbrMetallicRoughness": {
        "baseColorTexture": {
          "index": 0
        },
        "metallicFactor": 0.0
      }
    }
  ],
  "meshes": [
    {
      "name": "Object_0",
      "primitives": [
        {
          "attributes": {
            "NORMAL": 1,
            "POSITION": 0,
            "TEXCOORD_0": 2
          },
          "indices": 3,
          "material": 0,
          "mode": 4
        }
      ]
    }
  ],
  "nodes": [
    {
      "children": [
        1
      ],
      "matrix": [
        1.0,
        0.0,
        0.0,
        0.0,
        0.0,
        2.220446049250313e-16,
        -1.0,
        0.0,
        0.0,
        1.0,
        2.220446049250313e-16,
        0.0,
        0.0,
        0.0,
        0.0,
        1.0
      ],
      "name": "Sketchfab_model"
    },
    {
      "children": [
        2
      ],
      "name": "root"
    },
    {
      "children": [
        3
      ],
      "matrix": [
        1.0,
        0.0,
        0.0,
        0.0,
        0.0,
        2.220446049250313e-16,
        1.0,
        0.0,
        0.0,
        -1.0,
        2.220446049250313e-16,
        0.0,
        0.0,
        0.0,
        0.0,
        1.0
      ],
      "name": "GLTF_SceneRootNode"
    },
    {
      "children": [
        4
      ],
      "matrix": [
        -0.008323846162445525,
        0.0,
        -0.9999653561924352,
        0.0,
        0.0,
        1.0,
        0.0,
        0.0,
        0.9999653561924352,
        0.0,
        -0.008323846162445525,
        0.0,
        -0.010923244059085846,
        0.0,
        -0.017285160720348358,
        1.0
      ],
      "name": "Mesh_0.006_0"
    },
    {
      "mesh": 0,
      "name": "Object_4"
    }
  ],
  "samplers": [
    {
      "magFilter": 9729,
      "minFilter": 9987,
      "wrapS": 10497,
      "wrapT": 10497
    }
  ],
  "scene": 0,
  "scenes": [
    {
      "name": "Sketchfab_Scene",
      "nodes": [
        0
      ]
    }
  ],
  "textures": [
    {
      "sampler": 0,
      "source": 0
    }
  ]
}
